<svg width="44.001" height="70" viewBox="0 0 44.001 70" xmlns="http://www.w3.org/2000/svg">
  <g id="svgGroup" fill-rule="evenodd" font-size="9pt" fill="#9112bc" style="fill:#9112bc" transform="scale(1,0.9)">
    <path d="M 18 70 L 0.6 70 L 0.6 58.9 L 19.1 58.9 Q 25.8 58.9 29.1 56.5 Q 32.4 54.1 32.4 48 Q 32.4 44.2 30.55 42.25 Q 28.7 40.3 26 39.25 Q 23.3 38.2 20.6 37.3 Q 17.2 36.1 13.55 34.45 Q 9.9 32.8 6.85 29.95 Q 3.8 27.1 1.9 22.25 Q 0 17.4 0 9.8 L 0 0 L 40.8 0 L 40.8 11.1 L 11.5 11.1 Q 11.5 15.6 12.65 18.45 Q 13.8 21.3 16.9 23.35 Q 20 25.4 25.9 27.5 Q 28.4 28.4 31.5 29.75 Q 34.6 31.1 37.45 33.35 Q 40.3 35.6 42.15 39.2 Q 44 42.8 44 48.1 Q 44 55.8 40.4 60.65 Q 36.8 65.5 30.9 67.75 Q 25 70 18 70 Z" vector-effect="non-scaling-stroke"/>
  </g>
</svg>
